<?xml version="1.0" encoding="UTF-8" standalone="no"?>
<!-- Created with Inkscape (http://www.inkscape.org/) -->

<svg
   xmlns:dc="http://purl.org/dc/elements/1.1/"
   xmlns:cc="http://creativecommons.org/ns#"
   xmlns:rdf="http://www.w3.org/1999/02/22-rdf-syntax-ns#"
   xmlns:svg="http://www.w3.org/2000/svg"
   xmlns="http://www.w3.org/2000/svg"
   xmlns:xlink="http://www.w3.org/1999/xlink"
   xmlns:sodipodi="http://sodipodi.sourceforge.net/DTD/sodipodi-0.dtd"
   xmlns:inkscape="http://www.inkscape.org/namespaces/inkscape"
   width="210mm"
   height="297mm"
   viewBox="0 0 210 297"
   version="1.1"
   id="svg8"
   inkscape:version="0.92.5 (2060ec1f9f, 2020-04-08)"
   sodipodi:docname="exercise.svg">
  <defs
     id="defs2">
    <linearGradient
       inkscape:collect="always"
       id="linearGradient4587">
      <stop
         style="stop-color:#ff7f2a;stop-opacity:1"
         offset="0"
         id="stop4583" />
      <stop
         style="stop-color:#a02c2c;stop-opacity:1"
         offset="1"
         id="stop4585" />
    </linearGradient>
    <linearGradient
       inkscape:collect="always"
       id="linearGradient4579">
      <stop
         style="stop-color:#a02c2c;stop-opacity:1"
         offset="0"
         id="stop4575" />
      <stop
         style="stop-color:#ff6600;stop-opacity:1"
         offset="1"
         id="stop4577" />
    </linearGradient>
    <linearGradient
       inkscape:collect="always"
       xlink:href="#linearGradient4579"
       id="linearGradient4581"
       x1="258.20898"
       y1="358.59375"
       x2="520.70898"
       y2="358.59375"
       gradientUnits="userSpaceOnUse" />
    <linearGradient
       inkscape:collect="always"
       xlink:href="#linearGradient4587"
       id="linearGradient4589"
       x1="220.70898"
       y1="460.0625"
       x2="520.70898"
       y2="460.0625"
       gradientUnits="userSpaceOnUse" />
  </defs>
  <sodipodi:namedview
     id="base"
     pagecolor="#ffffff"
     bordercolor="#666666"
     borderopacity="1.0"
     inkscape:pageopacity="0.0"
     inkscape:pageshadow="2"
     inkscape:zoom="0.94237256"
     inkscape:cx="466.6665"
     inkscape:cy="715.40777"
     inkscape:document-units="px"
     inkscape:current-layer="layer1"
     showgrid="false"
     showborder="false"
     inkscape:object-paths="true"
     inkscape:snap-intersection-paths="true"
     inkscape:snap-smooth-nodes="true"
     inkscape:snap-bbox="false"
     inkscape:window-width="1920"
     inkscape:window-height="1001"
     inkscape:window-x="2391"
     inkscape:window-y="-9"
     inkscape:window-maximized="1" />
  <metadata
     id="metadata5">
    <rdf:RDF>
      <cc:Work
         rdf:about="">
        <dc:format>image/svg+xml</dc:format>
        <dc:type
           rdf:resource="http://purl.org/dc/dcmitype/StillImage" />
        <dc:title></dc:title>
      </cc:Work>
    </rdf:RDF>
  </metadata>
  <g
     inkscape:label="Layer 1"
     inkscape:groupmode="layer"
     id="layer1">
    <path
       style="opacity:1;stroke-width:0.96153855;fill-opacity:1;fill:url(#linearGradient4589)"
       d="M 370.70898 310.0625 A 150.00001 150.00001 0 0 0 220.70898 460.0625 A 150.00001 150.00001 0 0 0 370.70898 610.0625 A 150.00001 150.00001 0 0 0 520.70898 460.0625 A 150.00001 150.00001 0 0 0 370.70898 310.0625 z M 370.70898 385.0625 A 75.000007 75.000007 0 0 1 445.70898 460.0625 A 75.000007 75.000007 0 0 1 370.70898 535.0625 A 75.000007 75.000007 0 0 1 295.70898 460.0625 A 75.000007 75.000007 0 0 1 370.70898 385.0625 z "
       transform="scale(0.26458333)"
       id="path4521" />
    <path
       style="opacity:1;stroke-width:0.72115391;fill:url(#linearGradient4581);fill-opacity:1"
       d="M 520.70898 107.125 C 479.15901 107.125 445.70898 140.575 445.70898 182.125 L 445.70898 460.0625 A 75.000004 75.000004 0 0 1 370.70898 535.0625 A 75.000004 75.000004 0 0 1 295.70898 460.0625 A 75.000004 75.000004 0 0 1 363.2207 385.4375 A 112.50001 112.50001 0 0 0 258.20898 497.5625 A 112.50001 112.50001 0 0 0 367.71289 609.95703 A 112.50001 112.50001 0 0 0 370.70898 610.0625 A 112.50001 112.50001 0 0 0 381.93945 609.5 A 150.00001 150.00001 0 0 0 520.70898 460.0625 L 520.70898 107.125 z "
       transform="scale(0.26458333)"
       id="path4526" />
  </g>
</svg>
