<svg xmlns="http://www.w3.org/2000/svg" viewBox="0 0 6.57 6.57"><defs><style>.cls-1{fill:none;stroke:#000;stroke-miterlimit:10;stroke-width:1.2px;}</style></defs><title>Asset 8</title><g id="Layer_2" data-name="Layer 2"><g id="Layer_4" data-name="Layer 4"><path d="M3.28,2.14A1.12,1.12,0,1,1,2.16,3.26,1.12,1.12,0,0,1,3.28,2.14m0-1.43A2.56,2.56,0,1,0,5.84,3.26,2.55,2.55,0,0,0,3.28.71Z"/><line class="cls-1" x1="3.28" y1="1.43" x2="3.28"/><line class="cls-1" x1="3.28" y1="6.57" x2="3.28" y2="5.13"/><line class="cls-1" x1="6.57" y1="3.27" x2="5.2" y2="3.27"/><line class="cls-1" x1="1.36" y1="3.27" y2="3.27"/><line class="cls-1" x1="4.66" y1="1.9" x2="5.6" y2="0.95"/><line class="cls-1" x1="0.96" y1="5.6" x2="1.94" y2="4.61"/><line class="cls-1" x1="5.61" y1="5.59" x2="4.69" y2="4.67"/><line class="cls-1" x1="1.94" y1="1.92" x2="0.97" y2="0.94"/></g></g></svg>