<svg xmlns="http://www.w3.org/2000/svg" viewBox="0 0 14.06 8.03"><defs><style>.cls-1{fill:none;stroke:#12141f;stroke-miterlimit:10;stroke-width:0.36px;}.cls-2{fill:#14421d;}.cls-3{fill:#6d7f00;}.cls-4{fill:#12141f;}</style></defs><title>Asset 4</title><g id="Layer_2" data-name="Layer 2"><g id="Layer_1-2" data-name="Layer 1"><line class="cls-1" x1="5.67" y1="5.87" x2="0.99" y2="5.87"/><line class="cls-1" x1="4.71" y1="6.88" x2="1.94" y2="6.88"/><line class="cls-1" x1="3.91" y1="7.85" x2="2.75" y2="7.85"/><path class="cls-2" d="M3.43,5.09s0,0,.06,0a2.6,2.6,0,0,1,.76-1.27C4.7,3.42,5,3.41,5.53,3a.81.81,0,0,0,.26-.94.87.87,0,0,0-1.11-.54A1.66,1.66,0,0,0,3.43,3.35Z"/><path class="cls-2" d="M3.13,5.1c0,.05.07,0,.07,0V3.35A3.5,3.5,0,0,0,2.09.68C1.47.26.44.17.08.9A1.12,1.12,0,0,0,.36,2.1c.51.45,1,.45,1.56.88A3.11,3.11,0,0,1,3.13,5.1Z"/><path class="cls-3" d="M3.33,2.48a1.5,1.5,0,0,1,.45-.74c.25-.2.5-.29.69-.45a.71.71,0,0,0,.25-.8A.66.66,0,0,0,4.13,0a.87.87,0,0,0-.94.4,1.94,1.94,0,0,0-.06,1.28C3.21,2,3.3,2.3,3.33,2.48Z"/><path class="cls-4" d="M6.13,8a.48.48,0,0,1-.34-.14.49.49,0,0,1-.14-.34V4.94H6V5.7H7V6H6V7.54a.15.15,0,0,0,0,.11.17.17,0,0,0,.11,0H7V8Z"/><path class="cls-4" d="M7.77,8a.48.48,0,0,1-.34-.14.45.45,0,0,1-.14-.34V6.7h2V6.18a.18.18,0,0,0-.05-.11.14.14,0,0,0-.11,0H7.29V5.7H9.16a.5.5,0,0,1,.35.14.49.49,0,0,1,.14.34V8Zm0-.33H9.32V7H7.62v.52a.14.14,0,0,0,.15.15Z"/><path class="cls-4" d="M10.55,8a.48.48,0,0,1-.34-.14.45.45,0,0,1-.14-.34V4.94h.33V5.7h1V6h-1V7.54a.14.14,0,0,0,.15.15h.85V8Z"/><path class="cls-4" d="M12.18,8a.48.48,0,0,1-.48-.48V6.18a.48.48,0,0,1,.48-.48h1.39a.48.48,0,0,1,.35.14.45.45,0,0,1,.14.34V7.54a.45.45,0,0,1-.14.34.48.48,0,0,1-.35.14Zm0-.33h1.39a.14.14,0,0,0,.11,0,.13.13,0,0,0,.05-.11V6.18a.14.14,0,0,0-.05-.11.14.14,0,0,0-.11,0H12.18a.15.15,0,0,0-.11,0,.17.17,0,0,0,0,.11V7.54a.14.14,0,0,0,.15.15Z"/></g></g></svg>